<svg width="31" height="19" viewBox="0 0 31 19" fill="none" xmlns="http://www.w3.org/2000/svg">
<path d="M13.6947 10.5082C13.5491 10.2974 13.3933 9.99055 13.3336 9.86349L11.5794 10.9089L10.2102 11.5232L15.3092 8.13816C14.5655 7.4716 13.0613 6.11027 12.9944 5.99748C12.9274 5.88469 12.8281 5.44154 12.7868 5.23407C12.8466 5.36113 13.0047 5.68779 13.1597 5.97795C13.3147 6.26812 14.8135 7.44231 15.5435 7.99314C16.2766 7.48187 17.7868 6.43402 17.9626 6.33279C18.1384 6.23156 18.3949 5.73411 18.5011 5.49804C18.4976 5.61022 18.4346 5.92836 18.2106 6.3035C17.9867 6.67864 16.4995 7.71261 15.7838 8.1827L20.4697 12.0886L17.6638 10.1903C17.4888 10.4122 17.0803 10.8996 16.8462 11.0748C16.5536 11.2938 16.1775 16.5854 15.1476 16.707C14.6185 16.7695 14.1321 12.0827 14.1192 11.5477C14.1063 11.0128 13.8767 10.7717 13.6947 10.5082Z" fill="#EFEFEF"/>
<path d="M18.3283 6.73252C17.356 7.29999 16.7874 8.30592 16.7865 8.44015C16.8952 8.55584 17.246 8.89552 17.7799 9.32868C18.4474 9.87014 19.6361 10.283 20.8103 10.7143C21.9844 11.1456 23.0191 10.8223 23.2097 10.7327C23.3622 10.661 23.2394 10.4163 23.159 10.3028C23.4923 10.4758 24.3921 10.8646 25.3243 11.0362C26.2566 11.2077 26.9473 10.9619 27.1761 10.8175C26.4409 10.4126 24.8385 9.53449 24.3101 9.26161C23.7816 8.98873 22.2099 8.65465 21.4901 8.52172C21.6178 8.46752 22.0785 8.30807 22.8993 8.10384C23.9253 7.84856 24.9558 6.92218 24.9859 6.75098C25.01 6.61403 24.6542 6.73427 24.4734 6.81151C24.5418 6.77549 25.0265 6.55508 26.4182 5.96156C27.81 5.36803 28.9828 3.9711 29.3952 3.34682C28.3251 3.41732 25.7753 3.6402 24.1375 3.96772C22.0904 4.37712 19.3007 6.16506 18.3283 6.73252Z" fill="#EFEFEF"/>
<path d="M12.6819 6.45285C13.6667 6.99846 14.2575 7.99146 14.2615 8.12563C14.1554 8.24372 13.8123 8.59114 13.2881 9.03612C12.6329 9.59234 11.4537 10.0316 10.2895 10.4891C9.12526 10.9465 8.08357 10.6463 7.89103 10.561C7.73699 10.4928 7.85428 10.2453 7.93218 10.1301C7.60277 10.3105 6.7119 10.7193 5.78373 10.9116C4.85555 11.104 4.15953 10.8736 3.92754 10.7344C4.65347 10.3131 6.23588 9.39947 6.7581 9.11486C7.28032 8.83026 8.84418 8.46116 9.56083 8.3122C9.43193 8.26086 8.96786 8.11173 8.14271 7.92589C7.11126 7.69358 6.06027 6.79043 6.02638 6.61995C5.99927 6.48357 6.35759 6.59584 6.54015 6.66902C6.47097 6.63454 5.98145 6.42501 4.57679 5.86271C3.17214 5.30041 1.96842 3.93 1.54215 3.31509C2.61363 3.36168 5.16775 3.52757 6.8124 3.81845C8.86822 4.18204 11.6971 5.90724 12.6819 6.45285Z" fill="#EFEFEF"/>
</svg>
